<svg data-v-5f19e91b="" xmlns="http://www.w3.org/2000/svg" width="513" height="38" viewBox="0 0 513 38"><!----> <!----> <!----> <g data-v-5f19e91b="" id="1b26e0a1-f492-a7b1-a89d-35b9043b636b" fill="black" transform="matrix(5.628517904206723,0,0,5.628517904206723,43.56004694771201,-43.33729233967231)"><path d="M1.31 16.19L1.31 5.69L2.63 5.69L2.63 16.19L1.31 16.19ZM4.59 12.20L4.59 12.20L4.59 12.20Q4.59 10.99 4.85 10.19L4.85 10.19L4.85 10.19Q5.11 9.40 5.69 8.93L5.69 8.93L5.69 8.93Q6.26 8.47 7.18 8.28L7.18 8.28L7.18 8.28Q8.09 8.09 9.41 8.09L9.41 8.09L9.41 8.09Q10.72 8.09 11.63 8.28L11.63 8.28L11.63 8.28Q12.55 8.47 13.13 8.93L13.13 8.93L13.13 8.93Q13.70 9.40 13.96 10.19L13.96 10.19L13.96 10.19Q14.22 10.99 14.22 12.20L14.22 12.20L14.22 12.20Q14.22 13.41 13.96 14.21L13.96 14.21L13.96 14.21Q13.70 15.00 13.13 15.48L13.13 15.48L13.13 15.48Q12.55 15.95 11.63 16.14L11.63 16.14L11.63 16.14Q10.72 16.34 9.41 16.34L9.41 16.34L9.41 16.34Q8.09 16.34 7.18 16.14L7.18 16.14L7.18 16.14Q6.26 15.95 5.69 15.48L5.69 15.48L5.69 15.48Q5.11 15.00 4.85 14.21L4.85 14.21L4.85 14.21Q4.59 13.41 4.59 12.20ZM5.91 12.20L5.91 12.20L5.91 12.20Q5.91 12.85 5.95 13.34L5.95 13.34L5.95 13.34Q6.00 13.82 6.14 14.17L6.14 14.17L6.14 14.17Q6.27 14.52 6.51 14.74L6.51 14.74L6.51 14.74Q6.75 14.96 7.14 15.09L7.14 15.09L7.14 15.09Q7.53 15.22 8.08 15.26L8.08 15.26L8.08 15.26Q8.64 15.31 9.41 15.31L9.41 15.31L9.41 15.31Q10.06 15.31 10.58 15.28L10.58 15.28L10.58 15.28Q11.09 15.25 11.48 15.14L11.48 15.14L11.48 15.14Q11.87 15.03 12.14 14.83L12.14 14.83L12.14 14.83Q12.41 14.63 12.58 14.28L12.58 14.28L12.58 14.28Q12.75 13.93 12.83 13.42L12.83 13.42L12.83 13.42Q12.91 12.91 12.91 12.20L12.91 12.20L12.91 12.20Q12.91 11.49 12.83 11.00L12.83 11.00L12.83 11.00Q12.75 10.50 12.58 10.17L12.58 10.17L12.58 10.17Q12.41 9.83 12.14 9.64L12.14 9.64L12.14 9.64Q11.87 9.44 11.48 9.34L11.48 9.34L11.48 9.34Q11.09 9.24 10.58 9.21L10.58 9.21L10.58 9.21Q10.06 9.19 9.41 9.19L9.41 9.19L9.41 9.19Q8.75 9.19 8.23 9.21L8.23 9.21L8.23 9.21Q7.72 9.24 7.33 9.34L7.33 9.34L7.33 9.34Q6.95 9.44 6.67 9.64L6.67 9.64L6.67 9.64Q6.40 9.83 6.23 10.17L6.23 10.17L6.23 10.17Q6.06 10.50 5.98 11.00L5.98 11.00L5.98 11.00Q5.91 11.49 5.91 12.20ZM15.53 12.26L15.53 12.26L15.53 12.26Q15.53 11.44 15.61 10.81L15.61 10.81L15.61 10.81Q15.70 10.19 15.90 9.72L15.90 9.72L15.90 9.72Q16.11 9.26 16.46 8.94L16.46 8.94L16.46 8.94Q16.82 8.63 17.35 8.44L17.35 8.44L17.35 8.44Q17.89 8.25 18.63 8.17L18.63 8.17L18.63 8.17Q19.37 8.09 20.35 8.09L20.35 8.09L20.35 8.09Q21.66 8.09 22.51 8.25L22.51 8.25L22.51 8.25Q23.36 8.41 23.85 8.74L23.85 8.74L23.85 8.74Q24.34 9.07 24.53 9.58L24.53 9.58L24.53 9.58Q24.73 10.09 24.73 10.79L24.73 10.79L23.41 10.79L23.41 10.79Q23.41 10.54 23.40 10.32L23.40 10.32L23.40 10.32Q23.39 10.10 23.30 9.93L23.30 9.93L23.30 9.93Q23.21 9.75 23.03 9.61L23.03 9.61L23.03 9.61Q22.85 9.47 22.50 9.37L22.50 9.37L22.50 9.37Q22.16 9.28 21.64 9.23L21.64 9.23L21.64 9.23Q21.12 9.18 20.35 9.18L20.35 9.18L20.35 9.18Q19.48 9.18 18.88 9.24L18.88 9.24L18.88 9.24Q18.28 9.30 17.89 9.44L17.89 9.44L17.89 9.44Q17.50 9.58 17.29 9.82L17.29 9.82L17.29 9.82Q17.08 10.06 16.98 10.40L16.98 10.40L16.98 10.40Q16.88 10.74 16.87 11.20L16.87 11.20L16.87 11.20Q16.85 11.66 16.85 12.26L16.85 12.26L16.85 12.26Q16.85 12.85 16.87 13.31L16.87 13.31L16.87 13.31Q16.88 13.76 16.98 14.10L16.98 14.10L16.98 14.10Q17.08 14.44 17.29 14.67L17.29 14.67L17.29 14.67Q17.50 14.90 17.89 15.05L17.89 15.05L17.89 15.05Q18.28 15.19 18.88 15.25L18.88 15.25L18.88 15.25Q19.48 15.31 20.35 15.31L20.35 15.31L20.35 15.31Q21.12 15.31 21.64 15.26L21.64 15.26L21.64 15.26Q22.16 15.20 22.50 15.10L22.50 15.10L22.50 15.10Q22.85 15.00 23.03 14.85L23.03 14.85L23.03 14.85Q23.21 14.70 23.30 14.50L23.30 14.50L23.30 14.50Q23.39 14.31 23.40 14.07L23.40 14.07L23.40 14.07Q23.41 13.84 23.41 13.56L23.41 13.56L24.73 13.56L24.73 13.56Q24.73 14.28 24.53 14.81L24.53 14.81L24.53 14.81Q24.34 15.33 23.85 15.67L23.85 15.67L23.85 15.67Q23.36 16.01 22.51 16.17L22.51 16.17L22.51 16.17Q21.66 16.34 20.35 16.34L20.35 16.34L20.35 16.34Q19.37 16.34 18.63 16.26L18.63 16.26L18.63 16.26Q17.89 16.17 17.35 15.99L17.35 15.99L17.35 15.99Q16.82 15.80 16.46 15.49L16.46 15.49L16.46 15.49Q16.11 15.18 15.90 14.73L15.90 14.73L15.90 14.73Q15.70 14.28 15.61 13.67L15.61 13.67L15.61 13.67Q15.53 13.06 15.53 12.26ZM34.32 16.19L34.32 15.11L34.32 15.11Q34.30 15.19 34.01 15.52L34.01 15.52L34.01 15.52Q33.80 15.76 33.46 15.95L33.46 15.95L33.46 15.95Q33.12 16.14 32.55 16.25L32.55 16.25L32.55 16.25Q31.98 16.35 31.05 16.35L31.05 16.35L31.05 16.35Q29.81 16.35 28.94 16.23L28.94 16.23L28.94 16.23Q28.06 16.10 27.51 15.84L27.51 15.84L27.51 15.84Q26.95 15.57 26.70 15.16L26.70 15.16L26.70 15.16Q26.44 14.75 26.44 14.18L26.44 14.18L26.44 14.18Q26.44 13.59 26.58 13.18L26.58 13.18L26.58 13.18Q26.72 12.76 26.99 12.48L26.99 12.48L26.99 12.48Q27.26 12.20 27.64 12.04L27.64 12.04L27.64 12.04Q28.03 11.89 28.52 11.81L28.52 11.81L28.52 11.81Q29.00 11.72 29.59 11.70L29.59 11.70L29.59 11.70Q30.17 11.68 30.82 11.68L30.82 11.68L30.82 11.68Q31.76 11.68 32.39 11.76L32.39 11.76L32.39 11.76Q33.02 11.84 33.42 11.96L33.42 11.96L33.42 11.96Q33.82 12.08 34.02 12.22L34.02 12.22L34.02 12.22Q34.23 12.35 34.32 12.47L34.32 12.47L34.32 12.47Q34.32 11.70 34.25 11.16L34.25 11.16L34.25 11.16Q34.19 10.62 34.04 10.26L34.04 10.26L34.04 10.26Q33.89 9.90 33.66 9.68L33.66 9.68L33.66 9.68Q33.43 9.47 33.09 9.36L33.09 9.36L33.09 9.36Q32.75 9.25 32.30 9.22L32.30 9.22L32.30 9.22Q31.85 9.19 31.27 9.19L31.27 9.19L31.27 9.19Q30.37 9.19 29.77 9.23L29.77 9.23L29.77 9.23Q29.18 9.28 28.83 9.41L28.83 9.41L28.83 9.41Q28.48 9.54 28.33 9.77L28.33 9.77L28.33 9.77Q28.19 9.99 28.19 10.36L28.19 10.36L26.88 10.36L26.88 10.36Q26.88 9.74 27.10 9.31L27.10 9.31L27.10 9.31Q27.32 8.88 27.84 8.61L27.84 8.61L27.84 8.61Q28.36 8.34 29.20 8.22L29.20 8.22L29.20 8.22Q30.04 8.09 31.27 8.09L31.27 8.09L31.27 8.09Q32.47 8.09 33.30 8.29L33.30 8.29L33.30 8.29Q34.14 8.49 34.65 8.99L34.65 8.99L34.65 8.99Q35.17 9.49 35.40 10.33L35.40 10.33L35.40 10.33Q35.63 11.18 35.63 12.47L35.63 12.47L35.63 16.19L34.32 16.19ZM31.27 15.31L31.27 15.31L31.27 15.31Q32.14 15.31 32.72 15.23L32.72 15.23L32.72 15.23Q33.30 15.15 33.66 14.98L33.66 14.98L33.66 14.98Q34.02 14.82 34.17 14.57L34.17 14.57L34.17 14.57Q34.32 14.33 34.32 14L34.32 14L34.32 14Q34.32 13.67 34.14 13.44L34.14 13.44L34.14 13.44Q33.97 13.21 33.56 13.07L33.56 13.07L33.56 13.07Q33.15 12.93 32.48 12.86L32.48 12.86L32.48 12.86Q31.81 12.80 30.83 12.80L30.83 12.80L30.83 12.80Q29.85 12.80 29.24 12.83L29.24 12.83L29.24 12.83Q28.64 12.87 28.31 12.99L28.31 12.99L28.31 12.99Q27.98 13.11 27.87 13.35L27.87 13.35L27.87 13.35Q27.75 13.59 27.75 14L27.75 14L27.75 14Q27.75 14.41 27.87 14.67L27.87 14.67L27.87 14.67Q27.99 14.92 28.36 15.07L28.36 15.07L28.36 15.07Q28.73 15.21 29.43 15.26L29.43 15.26L29.43 15.26Q30.12 15.31 31.27 15.31ZM37.82 16.19L37.82 5.69L39.13 5.69L39.13 16.19L37.82 16.19ZM44.82 16.19L44.82 8.31L46.13 8.31L46.13 16.19L44.82 16.19ZM46.13 5.69L46.13 7L44.82 7L44.82 5.69L46.13 5.69ZM57.50 16.19L56.19 16.19L56.19 11.81L56.19 11.81Q56.19 11.08 56.08 10.58L56.08 10.58L56.08 10.58Q55.97 10.08 55.64 9.77L55.64 9.77L55.64 9.77Q55.32 9.46 54.71 9.32L54.71 9.32L54.71 9.32Q54.11 9.19 53.13 9.19L53.13 9.19L53.13 9.19Q52.06 9.19 51.38 9.34L51.38 9.34L51.38 9.34Q50.70 9.50 50.31 9.79L50.31 9.79L50.31 9.79Q49.92 10.08 49.78 10.48L49.78 10.48L49.78 10.48Q49.63 10.88 49.63 11.38L49.63 11.38L49.63 16.19L48.32 16.19L48.32 8.31L49.63 8.31L49.63 9.63L49.63 9.63Q49.77 9.29 50.04 9.05L50.04 9.05L50.04 9.05Q50.31 8.80 50.64 8.63L50.64 8.63L50.64 8.63Q50.98 8.46 51.37 8.36L51.37 8.36L51.37 8.36Q51.75 8.25 52.14 8.19L52.14 8.19L52.14 8.19Q52.53 8.13 52.90 8.11L52.90 8.11L52.90 8.11Q53.27 8.09 53.57 8.09L53.57 8.09L53.57 8.09Q54.44 8.09 55.07 8.20L55.07 8.20L55.07 8.20Q55.71 8.31 56.15 8.52L56.15 8.52L56.15 8.52Q56.59 8.74 56.85 9.05L56.85 9.05L56.85 9.05Q57.12 9.37 57.27 9.78L57.27 9.78L57.27 9.78Q57.42 10.19 57.46 10.70L57.46 10.70L57.46 10.70Q57.51 11.21 57.51 11.81L57.51 11.81L57.50 16.19ZM63.85 16.34L63.85 16.34L63.85 16.34Q62.54 16.34 61.63 16.15L61.63 16.15L61.63 16.15Q60.71 15.96 60.14 15.49L60.14 15.49L60.14 15.49Q59.56 15.03 59.30 14.24L59.30 14.24L59.30 14.24Q59.04 13.45 59.04 12.26L59.04 12.26L59.04 12.26Q59.04 11.03 59.30 10.23L59.30 10.23L59.30 10.23Q59.56 9.42 60.14 8.95L60.14 8.95L60.14 8.95Q60.71 8.48 61.63 8.29L61.63 8.29L61.63 8.29Q62.54 8.09 63.85 8.09L63.85 8.09L63.85 8.09Q64.78 8.09 65.41 8.19L65.41 8.19L65.41 8.19Q66.04 8.29 66.44 8.43L66.44 8.43L66.44 8.43Q66.84 8.57 67.05 8.74L67.05 8.74L67.05 8.74Q67.26 8.91 67.35 9.05L67.35 9.05L67.35 5.69L68.67 5.69L68.67 16.19L67.35 16.19L67.35 15.02L67.35 15.02Q67.35 15.02 67.03 15.41L67.03 15.41L67.03 15.41Q66.74 15.69 66.39 15.86L66.39 15.86L66.39 15.86Q66.04 16.03 65.41 16.18L65.41 16.18L65.41 16.18Q64.78 16.34 63.85 16.34ZM63.85 15.31L63.85 15.31L63.85 15.31Q64.51 15.31 65.02 15.28L65.02 15.28L65.02 15.28Q65.54 15.25 65.93 15.15L65.93 15.15L65.93 15.15Q66.32 15.05 66.59 14.84L66.59 14.84L66.59 14.84Q66.86 14.64 67.03 14.31L67.03 14.31L67.03 14.31Q67.20 13.97 67.28 13.48L67.28 13.48L67.28 13.48Q67.35 12.98 67.35 12.28L67.35 12.28L67.35 12.28Q67.35 11.56 67.28 11.05L67.28 11.05L67.28 11.05Q67.20 10.54 67.03 10.20L67.03 10.20L67.03 10.20Q66.86 9.85 66.59 9.65L66.59 9.65L66.59 9.65Q66.32 9.45 65.93 9.35L65.93 9.35L65.93 9.35Q65.54 9.24 65.02 9.21L65.02 9.21L65.02 9.21Q64.51 9.19 63.85 9.19L63.85 9.19L63.85 9.19Q63.09 9.19 62.53 9.24L62.53 9.24L62.53 9.24Q61.97 9.28 61.58 9.41L61.58 9.41L61.58 9.41Q61.20 9.53 60.95 9.75L60.95 9.75L60.95 9.75Q60.71 9.97 60.58 10.31L60.58 10.31L60.58 10.31Q60.44 10.65 60.40 11.13L60.40 11.13L60.40 11.13Q60.35 11.61 60.35 12.26L60.35 12.26L60.35 12.26Q60.35 12.91 60.40 13.38L60.40 13.38L60.40 13.38Q60.44 13.86 60.58 14.19L60.58 14.19L60.58 14.19Q60.71 14.53 60.95 14.75L60.95 14.75L60.95 14.75Q61.20 14.97 61.58 15.09L61.58 15.09L61.58 15.09Q61.97 15.22 62.53 15.26L62.53 15.26L62.53 15.26Q63.09 15.31 63.85 15.31ZM70.85 16.19L70.85 8.31L72.17 8.31L72.17 16.19L70.85 16.19ZM72.17 5.69L72.17 7L70.85 7L70.85 5.69L72.17 5.69ZM78.95 16.34L78.95 16.34L78.95 16.34Q77.64 16.34 76.72 16.16L76.72 16.16L76.72 16.16Q75.80 15.98 75.23 15.53L75.23 15.53L75.23 15.53Q74.66 15.09 74.40 14.34L74.40 14.34L74.40 14.34Q74.14 13.60 74.14 12.47L74.14 12.47L74.14 12.47Q74.14 11.18 74.40 10.33L74.40 10.33L74.40 10.33Q74.66 9.49 75.23 8.99L75.23 8.99L75.23 8.99Q75.80 8.49 76.72 8.29L76.72 8.29L76.72 8.29Q77.64 8.09 78.95 8.09L78.95 8.09L78.95 8.09Q79.88 8.09 80.57 8.23L80.57 8.23L80.57 8.23Q81.26 8.37 81.75 8.63L81.75 8.63L81.75 8.63Q82.24 8.89 82.54 9.26L82.54 9.26L82.54 9.26Q82.84 9.63 83.02 10.03L83.02 10.03L83.02 10.03Q83.19 10.44 83.26 10.99L83.26 10.99L83.26 10.99Q83.32 11.53 83.32 12.14L83.32 12.14L83.21 12.58L75.45 12.58L75.45 12.58Q75.45 13.48 75.63 14.06L75.63 14.06L75.63 14.06Q75.80 14.64 76.21 14.90L76.21 14.90L76.21 14.90Q76.62 15.17 77.29 15.24L77.29 15.24L77.29 15.24Q77.96 15.31 78.95 15.31L78.95 15.31L78.95 15.31Q79.85 15.31 80.44 15.26L80.44 15.26L80.44 15.26Q81.03 15.21 81.38 15.07L81.38 15.07L81.38 15.07Q81.73 14.92 81.87 14.67L81.87 14.67L81.87 14.67Q82.01 14.41 82.01 14L82.01 14L83.32 14L83.32 14Q83.32 14.64 83.10 15.08L83.10 15.08L83.10 15.08Q82.88 15.53 82.37 15.81L82.37 15.81L82.37 15.81Q81.85 16.08 81.02 16.21L81.02 16.21L81.02 16.21Q80.18 16.34 78.95 16.34ZM78.95 9.19L78.95 9.19L78.95 9.19Q78.29 9.19 77.78 9.21L77.78 9.21L77.78 9.21Q77.26 9.24 76.87 9.33L76.87 9.33L76.87 9.33Q76.49 9.43 76.21 9.60L76.21 9.60L76.21 9.60Q75.94 9.78 75.77 10.01L75.77 10.01L75.77 10.01Q75.61 10.25 75.53 10.67L75.53 10.67L75.53 10.67Q75.45 11.10 75.45 11.70L75.45 11.70L82.01 11.70L82.01 11.70Q82.01 10.90 81.84 10.45L81.84 10.45L81.84 10.45Q81.67 9.99 81.30 9.70L81.30 9.70L81.30 9.70Q80.93 9.41 80.35 9.30L80.35 9.30L80.35 9.30Q79.77 9.19 78.95 9.19Z"></path></g> <!----> <g data-v-5f19e91b="" id="752ca924-5d22-7a07-5ef0-b76d5645c5ad" transform="matrix(0.6444459279378255,0,0,0.6444459279378255,-4.622270923193476,-1.6223601022369323)" stroke="none" fill="black"><title>30 Think of Music</title><path d="M55.8,43.132,52,35.758c0-1.144,0-4.5-.021-4.817a1,1,0,0,0-1-.941H43.535l-1.7-2.555a1.039,1.039,0,0,0-1.664,0L38.465,30H37a1,1,0,0,0-.832.445l-1.044,1.567L32.9,27.553a1.042,1.042,0,0,0-1.79,0l-2.229,4.459-1.044-1.567A1,1,0,0,0,27,30H25.535l-1.7-2.555a1,1,0,0,0-1.727.108l-2.229,4.459-1.044-1.567A1,1,0,0,0,18,30H9a1,1,0,0,0-1,1c0,10.116,3.948,14.6,7.121,18.212C17.288,51.676,19,53.623,19,56.77V59a2,2,0,0,0,2,2H38a2,2,0,0,0,2-2V57h8a3,3,0,0,0,3-3l.045-7.19,3.352-.849A2,2,0,0,0,56,44,2.029,2.029,0,0,0,55.8,43.132Zm-5.191,1.726A2,2,0,0,0,49,46.82V54a1,1,0,0,1-1,1H37a9.311,9.311,0,0,1-8.012-4.536l-1.12-1.96a1,1,0,0,0-1.736.992l1.12,1.959A11.341,11.341,0,0,0,37,57h1v2H21V56.77c0-3.9-2.126-6.32-4.378-8.878-2.991-3.4-6.366-7.24-6.608-15.892h7.451l1.7,2.555a1,1,0,0,0,1.727-.108l2.229-4.459,1.044,1.567A1,1,0,0,0,25,32h1.465l1.7,2.555a1,1,0,0,0,1.727-.108L32,30.236l2.1,4.211a1,1,0,0,0,1.727.108L37.535,32H39a1,1,0,0,0,.832-.445L41,29.8l1.168,1.752A1,1,0,0,0,43,32h6.992C50,33.067,50,34.8,50,36a1,1,0,0,0,.111.458L54,44Z"></path><path d="M22,24c2.851,0,5-1.29,5-3V11.868l12-1.715v6.426A7.519,7.519,0,0,0,36,16c-2.851,0-5,1.29-5,3s2.149,3,5,3,5-1.29,5-3V4a1,1,0,0,0-1.142-.99l-14,2A1,1,0,0,0,25,6V18.579A7.519,7.519,0,0,0,22,18c-2.851,0-5,1.29-5,3S19.149,24,22,24Zm14-4c-1.936,0-3-.751-3-1s1.064-1,3-1,3,.751,3,1S37.936,20,36,20ZM27,6.867,39,5.153v2.98L27,9.847ZM22,20c1.936,0,3,.751,3,1s-1.064,1-3,1-3-.751-3-1S20.064,20,22,20Z"></path><path d="M9,16h1v1a1,1,0,0,0,2,0V16h1a1,1,0,0,0,0-2H12V13a1,1,0,0,0-2,0v1H9a1,1,0,0,0,0,2Z"></path><path d="M47,16h1v1a1,1,0,0,0,2,0V16h1a1,1,0,0,0,0-2H50V13a1,1,0,0,0-2,0v1H47a1,1,0,0,0,0,2Z"></path></g></svg>