<svg data-v-5f19e91b="" xmlns="http://www.w3.org/2000/svg" width="509" height="38" viewBox="0 0 509 38"><!----> <!----> <!----> <g data-v-5f19e91b="" id="ad0d23e2-59a4-b84a-6c20-6ff59ae7bc2f" fill="black" transform="matrix(4.587155990059039,0,0,4.587155990059039,49.190292621027226,-40.714694339003664)"><path d="M6.07 11.29L6.06 16.86L6.06 16.86Q6.06 17.17 6.14 17.36L6.14 17.36L6.14 17.36Q6.21 17.55 6.33 17.66L6.33 17.66L6.33 17.66Q6.45 17.77 6.60 17.80L6.60 17.80L6.60 17.80Q6.74 17.84 6.86 17.84L6.86 17.84L6.86 17.84Q6.88 17.84 6.90 17.84L6.90 17.84L6.90 17.84Q6.92 17.83 6.98 17.83L6.98 17.83L6.98 17.83Q7.05 17.83 7.17 17.81L7.17 17.81L7.17 17.81Q7.30 17.80 7.53 17.78L7.53 17.78L7.81 16.59L7.81 16.59Q7.92 16.20 8.09 15.93L8.09 15.93L8.09 15.93Q8.25 15.66 8.45 15.49L8.45 15.49L8.45 15.49Q8.64 15.33 8.86 15.25L8.86 15.25L8.86 15.25Q9.07 15.18 9.29 15.18L9.29 15.18L9.29 15.18Q9.55 15.18 9.77 15.26L9.77 15.26L9.77 15.26Q9.99 15.35 10.14 15.51L10.14 15.51L10.14 15.51Q10.30 15.67 10.39 15.90L10.39 15.90L10.39 15.90Q10.48 16.13 10.48 16.42L10.48 16.42L10.48 16.42Q10.48 16.70 10.42 17.03L10.42 17.03L10.42 17.03Q10.37 17.36 10.25 17.68L10.25 17.68L10.25 17.68Q10.14 18.00 9.97 18.30L9.97 18.30L9.97 18.30Q9.80 18.59 9.57 18.82L9.57 18.82L9.57 18.82Q9.34 19.04 9.05 19.18L9.05 19.18L9.05 19.18Q8.76 19.32 8.41 19.32L8.41 19.32L3.73 19.32L3.73 19.32Q2.93 19.32 2.30 19.23L2.30 19.23L2.30 19.23Q1.67 19.13 1.25 18.94L1.25 18.94L1.25 18.94Q0.82 18.74 0.60 18.44L0.60 18.44L0.60 18.44Q0.38 18.13 0.38 17.71L0.38 17.71L0.38 17.71Q0.38 17.54 0.46 17.47L0.46 17.47L0.46 17.47Q0.54 17.40 0.66 17.36L0.66 17.36L0.66 17.36Q0.78 17.32 0.92 17.29L0.92 17.29L0.92 17.29Q1.06 17.25 1.18 17.17L1.18 17.17L1.18 17.17Q1.30 17.08 1.38 16.92L1.38 16.92L1.38 16.92Q1.46 16.75 1.46 16.45L1.46 16.45L1.46 11.29L1.46 11.29Q1.46 10.99 1.38 10.82L1.38 10.82L1.38 10.82Q1.30 10.66 1.18 10.57L1.18 10.57L1.18 10.57Q1.06 10.49 0.92 10.45L0.92 10.45L0.92 10.45Q0.78 10.42 0.66 10.38L0.66 10.38L0.66 10.38Q0.54 10.34 0.46 10.27L0.46 10.27L0.46 10.27Q0.38 10.20 0.38 10.04L0.38 10.04L0.38 10.04Q0.38 9.61 0.60 9.31L0.60 9.31L0.60 9.31Q0.82 9.00 1.25 8.81L1.25 8.81L1.25 8.81Q1.67 8.61 2.30 8.52L2.30 8.52L2.30 8.52Q2.93 8.43 3.73 8.43L3.73 8.43L3.73 8.43Q4.57 8.43 5.21 8.52L5.21 8.52L5.21 8.52Q5.85 8.61 6.29 8.81L6.29 8.81L6.29 8.81Q6.72 9.00 6.94 9.31L6.94 9.31L6.94 9.31Q7.16 9.61 7.16 10.04L7.16 10.04L7.16 10.04Q7.16 10.20 7.08 10.27L7.08 10.27L7.08 10.27Q7 10.34 6.88 10.38L6.88 10.38L6.88 10.38Q6.76 10.42 6.62 10.45L6.62 10.45L6.62 10.45Q6.47 10.49 6.35 10.57L6.35 10.57L6.35 10.57Q6.23 10.66 6.15 10.82L6.15 10.82L6.15 10.82Q6.07 10.99 6.07 11.29L6.07 11.29ZM15.74 19.49L15.74 19.49L15.74 19.49Q14.92 19.49 14.24 19.30L14.24 19.30L14.24 19.30Q13.56 19.11 13.02 18.77L13.02 18.77L13.02 18.77Q12.48 18.44 12.07 17.99L12.07 17.99L12.07 17.99Q11.66 17.54 11.38 17.02L11.38 17.02L11.38 17.02Q11.11 16.50 10.97 15.93L10.97 15.93L10.97 15.93Q10.83 15.36 10.83 14.79L10.83 14.79L10.83 14.79Q10.83 14.21 10.98 13.65L10.98 13.65L10.98 13.65Q11.13 13.08 11.43 12.58L11.43 12.58L11.43 12.58Q11.72 12.07 12.17 11.65L12.17 11.65L12.17 11.65Q12.61 11.22 13.21 10.92L13.21 10.92L13.21 10.92Q13.81 10.61 14.56 10.44L14.56 10.44L14.56 10.44Q15.31 10.26 16.21 10.26L16.21 10.26L16.21 10.26Q17.00 10.26 17.66 10.44L17.66 10.44L17.66 10.44Q18.32 10.62 18.85 10.93L18.85 10.93L18.85 10.93Q19.39 11.24 19.79 11.66L19.79 11.66L19.79 11.66Q20.19 12.09 20.45 12.58L20.45 12.58L20.45 12.58Q20.72 13.08 20.85 13.64L20.85 13.64L20.85 13.64Q20.99 14.19 20.99 14.75L20.99 14.75L20.99 14.75Q20.99 15.33 20.84 15.91L20.84 15.91L20.84 15.91Q20.70 16.50 20.41 17.02L20.41 17.02L20.41 17.02Q20.12 17.55 19.68 18.00L19.68 18.00L19.68 18.00Q19.24 18.45 18.66 18.78L18.66 18.78L18.66 18.78Q18.07 19.11 17.34 19.30L17.34 19.30L17.34 19.30Q16.61 19.49 15.74 19.49ZM16.04 17.74L16.04 17.74L16.04 17.74Q16.27 17.74 16.42 17.61L16.42 17.61L16.42 17.61Q16.58 17.47 16.67 17.22L16.67 17.22L16.67 17.22Q16.77 16.97 16.81 16.61L16.81 16.61L16.81 16.61Q16.85 16.25 16.85 15.80L16.85 15.80L16.85 15.80Q16.85 15.42 16.84 14.98L16.84 14.98L16.84 14.98Q16.84 14.55 16.81 14.13L16.81 14.13L16.81 14.13Q16.78 13.71 16.72 13.32L16.72 13.32L16.72 13.32Q16.66 12.94 16.55 12.65L16.55 12.65L16.55 12.65Q16.43 12.35 16.26 12.18L16.26 12.18L16.26 12.18Q16.09 12.01 15.85 12.01L15.85 12.01L15.85 12.01Q15.61 12.01 15.44 12.14L15.44 12.14L15.44 12.14Q15.27 12.28 15.16 12.52L15.16 12.52L15.16 12.52Q15.05 12.76 15.00 13.09L15.00 13.09L15.00 13.09Q14.95 13.43 14.95 13.83L14.95 13.83L14.95 13.83Q14.95 14.21 14.96 14.64L14.96 14.64L14.96 14.64Q14.98 15.08 15.02 15.51L15.02 15.51L15.02 15.51Q15.06 15.95 15.14 16.35L15.14 16.35L15.14 16.35Q15.22 16.75 15.34 17.06L15.34 17.06L15.34 17.06Q15.46 17.37 15.63 17.55L15.63 17.55L15.63 17.55Q15.80 17.74 16.04 17.74ZM26.27 10.26L26.27 10.26L26.27 10.26Q27.29 10.26 28.01 10.49L28.01 10.49L28.01 10.49Q28.73 10.71 29.19 11.09L29.19 11.09L29.19 11.09Q29.65 11.48 29.87 11.99L29.87 11.99L29.87 11.99Q30.08 12.50 30.08 13.08L30.08 13.08L30.08 13.08Q30.08 13.32 30.00 13.50L30.00 13.50L30.00 13.50Q29.93 13.69 29.80 13.82L29.80 13.82L29.80 13.82Q29.67 13.95 29.50 14.01L29.50 14.01L29.50 14.01Q29.32 14.08 29.11 14.08L29.11 14.08L29.11 14.08Q28.94 14.08 28.75 14.02L28.75 14.02L28.75 14.02Q28.57 13.96 28.40 13.82L28.40 13.82L28.40 13.82Q28.24 13.69 28.11 13.47L28.11 13.47L28.11 13.47Q27.98 13.25 27.91 12.93L27.91 12.93L27.91 12.93Q27.86 12.71 27.75 12.54L27.75 12.54L27.75 12.54Q27.64 12.37 27.50 12.25L27.50 12.25L27.50 12.25Q27.36 12.13 27.19 12.07L27.19 12.07L27.19 12.07Q27.02 12.01 26.86 12.01L26.86 12.01L26.86 12.01Q26.56 12.01 26.35 12.13L26.35 12.13L26.35 12.13Q26.13 12.26 25.99 12.49L25.99 12.49L25.99 12.49Q25.85 12.73 25.78 13.07L25.78 13.07L25.78 13.07Q25.71 13.41 25.71 13.83L25.71 13.83L25.71 13.83Q25.71 15.47 26.21 16.26L26.21 16.26L26.21 16.26Q26.70 17.05 27.79 17.05L27.79 17.05L27.79 17.05Q28.11 17.05 28.44 16.96L28.44 16.96L28.44 16.96Q28.77 16.88 29.05 16.78L29.05 16.78L29.05 16.78Q29.33 16.67 29.53 16.59L29.53 16.59L29.53 16.59Q29.74 16.50 29.81 16.50L29.81 16.50L29.81 16.50Q29.97 16.50 30.06 16.64L30.06 16.64L30.06 16.64Q30.15 16.77 30.15 16.94L30.15 16.94L30.15 16.94Q30.15 16.99 30.14 17.04L30.14 17.04L30.14 17.04Q30.14 17.09 30.12 17.14L30.12 17.14L30.12 17.14Q29.92 17.64 29.56 18.07L29.56 18.07L29.56 18.07Q29.20 18.50 28.69 18.82L28.69 18.82L28.69 18.82Q28.19 19.13 27.56 19.31L27.56 19.31L27.56 19.31Q26.92 19.49 26.17 19.49L26.17 19.49L26.17 19.49Q25.41 19.49 24.77 19.31L24.77 19.31L24.77 19.31Q24.14 19.13 23.63 18.80L23.63 18.80L23.63 18.80Q23.12 18.48 22.74 18.04L22.74 18.04L22.74 18.04Q22.36 17.60 22.10 17.09L22.10 17.09L22.10 17.09Q21.85 16.57 21.72 16.01L21.72 16.01L21.72 16.01Q21.59 15.44 21.59 14.87L21.59 14.87L21.59 14.87Q21.59 14.29 21.72 13.72L21.72 13.72L21.72 13.72Q21.85 13.15 22.11 12.63L22.11 12.63L22.11 12.63Q22.37 12.12 22.76 11.69L22.76 11.69L22.76 11.69Q23.15 11.25 23.67 10.93L23.67 10.93L23.67 10.93Q24.19 10.62 24.84 10.44L24.84 10.44L24.84 10.44Q25.49 10.26 26.27 10.26ZM35.27 17.92L35.27 17.92L35.27 17.92Q35.50 17.92 35.64 17.85L35.64 17.85L35.64 17.85Q35.78 17.77 35.85 17.64L35.85 17.64L35.85 17.64Q35.93 17.51 35.95 17.31L35.95 17.31L35.95 17.31Q35.98 17.12 35.98 16.87L35.98 16.87L35.98 16.87Q35.98 16.66 35.97 16.33L35.97 16.33L35.97 16.33Q35.96 16.00 35.96 15.69L35.96 15.69L35.96 15.69Q35.94 15.32 35.94 14.92L35.94 14.92L35.94 14.92Q35.84 14.91 35.76 14.90L35.76 14.90L35.76 14.90Q35.67 14.89 35.59 14.89L35.59 14.89L35.59 14.89Q35.24 14.89 35.00 15.03L35.00 15.03L35.00 15.03Q34.77 15.17 34.62 15.42L34.62 15.42L34.62 15.42Q34.48 15.67 34.42 16.01L34.42 16.01L34.42 16.01Q34.36 16.34 34.36 16.74L34.36 16.74L34.36 16.74Q34.36 16.98 34.39 17.20L34.39 17.20L34.39 17.20Q34.42 17.41 34.51 17.57L34.51 17.57L34.51 17.57Q34.61 17.73 34.79 17.82L34.79 17.82L34.79 17.82Q34.97 17.92 35.27 17.92ZM38.57 19.32L38.57 19.32L38.57 19.32Q38.22 19.32 37.87 19.28L37.87 19.28L37.87 19.28Q37.53 19.24 37.22 19.13L37.22 19.13L37.22 19.13Q36.91 19.01 36.65 18.79L36.65 18.79L36.65 18.79Q36.39 18.57 36.20 18.21L36.20 18.21L36.20 18.21Q36.07 18.53 35.76 18.77L35.76 18.77L35.76 18.77Q35.46 19.01 35.07 19.17L35.07 19.17L35.07 19.17Q34.69 19.33 34.26 19.41L34.26 19.41L34.26 19.41Q33.83 19.49 33.44 19.49L33.44 19.49L33.44 19.49Q32.75 19.49 32.23 19.33L32.23 19.33L32.23 19.33Q31.71 19.16 31.36 18.86L31.36 18.86L31.36 18.86Q31.00 18.55 30.82 18.13L30.82 18.13L30.82 18.13Q30.65 17.71 30.65 17.18L30.65 17.18L30.65 17.18Q30.65 16.56 30.85 16.00L30.85 16.00L30.85 16.00Q31.06 15.44 31.56 15.03L31.56 15.03L31.56 15.03Q32.07 14.61 32.91 14.37L32.91 14.37L32.91 14.37Q33.75 14.12 35.01 14.12L35.01 14.12L35.95 14.12L35.95 14.12Q35.95 13.36 35.90 12.87L35.90 12.87L35.90 12.87Q35.85 12.37 35.74 12.07L35.74 12.07L35.74 12.07Q35.63 11.78 35.46 11.66L35.46 11.66L35.46 11.66Q35.30 11.55 35.07 11.55L35.07 11.55L35.07 11.55Q34.81 11.55 34.63 11.70L34.63 11.70L34.63 11.70Q34.46 11.86 34.35 12.16L34.35 12.16L34.35 12.16Q34.25 12.46 34.20 12.88L34.20 12.88L34.20 12.88Q34.16 13.30 34.16 13.83L34.16 13.83L34.16 13.83Q33.87 13.83 33.54 13.82L33.54 13.82L33.54 13.82Q33.22 13.81 32.90 13.77L32.90 13.77L32.90 13.77Q32.58 13.73 32.30 13.64L32.30 13.64L32.30 13.64Q32.01 13.56 31.79 13.41L31.79 13.41L31.79 13.41Q31.58 13.26 31.45 13.04L31.45 13.04L31.45 13.04Q31.32 12.81 31.32 12.49L31.32 12.49L31.32 12.49Q31.32 12.04 31.55 11.63L31.55 11.63L31.55 11.63Q31.79 11.23 32.28 10.93L32.28 10.93L32.28 10.93Q32.76 10.62 33.52 10.44L33.52 10.44L33.52 10.44Q34.27 10.26 35.31 10.26L35.31 10.26L35.31 10.26Q36.52 10.26 37.39 10.51L37.39 10.51L37.39 10.51Q38.27 10.75 38.83 11.25L38.83 11.25L38.83 11.25Q39.40 11.74 39.67 12.49L39.67 12.49L39.67 12.49Q39.94 13.23 39.94 14.24L39.94 14.24L39.94 16.66L39.94 16.66Q39.94 16.95 40.01 17.12L40.01 17.12L40.01 17.12Q40.09 17.28 40.21 17.37L40.21 17.37L40.21 17.37Q40.32 17.45 40.46 17.49L40.46 17.49L40.46 17.49Q40.59 17.52 40.70 17.56L40.70 17.56L40.70 17.56Q40.82 17.60 40.90 17.66L40.90 17.66L40.90 17.66Q40.97 17.73 40.97 17.88L40.97 17.88L40.97 17.88Q40.97 18.56 40.36 18.94L40.36 18.94L40.36 18.94Q39.75 19.32 38.57 19.32ZM46.60 8.02L46.60 16.69L46.60 16.69Q46.60 16.97 46.68 17.12L46.68 17.12L46.68 17.12Q46.75 17.28 46.86 17.36L46.86 17.36L46.86 17.36Q46.97 17.44 47.10 17.47L47.10 17.47L47.10 17.47Q47.24 17.50 47.35 17.53L47.35 17.53L47.35 17.53Q47.46 17.57 47.53 17.63L47.53 17.63L47.53 17.63Q47.61 17.70 47.61 17.85L47.61 17.85L47.61 17.85Q47.61 18.63 46.80 18.97L46.80 18.97L46.80 18.97Q45.99 19.32 44.47 19.32L44.47 19.32L44.47 19.32Q43.74 19.32 43.17 19.24L43.17 19.24L43.17 19.24Q42.60 19.15 42.21 18.97L42.21 18.97L42.21 18.97Q41.82 18.79 41.62 18.52L41.62 18.52L41.62 18.52Q41.42 18.24 41.42 17.85L41.42 17.85L41.42 17.85Q41.42 17.70 41.49 17.63L41.49 17.63L41.49 17.63Q41.56 17.57 41.68 17.53L41.68 17.53L41.68 17.53Q41.79 17.50 41.91 17.47L41.91 17.47L41.91 17.47Q42.04 17.45 42.15 17.37L42.15 17.37L42.15 17.37Q42.27 17.29 42.34 17.14L42.34 17.14L42.34 17.14Q42.41 16.99 42.41 16.71L42.41 16.71L42.41 9.03L42.41 9.03Q42.41 8.75 42.34 8.60L42.34 8.60L42.34 8.60Q42.27 8.46 42.15 8.38L42.15 8.38L42.15 8.38Q42.04 8.30 41.91 8.27L41.91 8.27L41.91 8.27Q41.79 8.24 41.68 8.21L41.68 8.21L41.68 8.21Q41.56 8.18 41.49 8.11L41.49 8.11L41.49 8.11Q41.42 8.05 41.42 7.90L41.42 7.90L41.42 7.90Q41.42 7.51 41.62 7.23L41.62 7.23L41.62 7.23Q41.82 6.95 42.21 6.77L42.21 6.77L42.21 6.77Q42.60 6.59 43.17 6.51L43.17 6.51L43.17 6.51Q43.74 6.43 44.47 6.43L44.47 6.43L44.47 6.43Q45.21 6.43 45.63 6.50L45.63 6.50L45.63 6.50Q46.05 6.58 46.27 6.76L46.27 6.76L46.27 6.76Q46.48 6.94 46.54 7.25L46.54 7.25L46.54 7.25Q46.60 7.55 46.60 8.02L46.60 8.02ZM57.48 11.29L57.47 16.42L57.47 16.42Q57.47 16.73 57.55 16.90L57.55 16.90L57.55 16.90Q57.63 17.07 57.76 17.16L57.76 17.16L57.76 17.16Q57.88 17.25 58.02 17.28L58.02 17.28L58.02 17.28Q58.17 17.32 58.29 17.36L58.29 17.36L58.29 17.36Q58.41 17.40 58.50 17.47L58.50 17.47L58.50 17.47Q58.58 17.54 58.58 17.71L58.58 17.71L58.58 17.71Q58.58 18.56 57.70 18.94L57.70 18.94L57.70 18.94Q56.81 19.32 55.15 19.32L55.15 19.32L55.15 19.32Q54.34 19.32 53.71 19.23L53.71 19.23L53.71 19.23Q53.09 19.13 52.66 18.94L52.66 18.94L52.66 18.94Q52.23 18.74 52.01 18.44L52.01 18.44L52.01 18.44Q51.79 18.13 51.79 17.71L51.79 17.71L51.79 17.71Q51.79 17.54 51.87 17.47L51.87 17.47L51.87 17.47Q51.95 17.40 52.07 17.36L52.07 17.36L52.07 17.36Q52.19 17.32 52.33 17.29L52.33 17.29L52.33 17.29Q52.47 17.25 52.59 17.17L52.59 17.17L52.59 17.17Q52.71 17.08 52.79 16.92L52.79 16.92L52.79 16.92Q52.88 16.75 52.88 16.45L52.88 16.45L52.88 11.29L52.88 11.29Q52.88 10.99 52.79 10.82L52.79 10.82L52.79 10.82Q52.71 10.66 52.59 10.57L52.59 10.57L52.59 10.57Q52.47 10.49 52.33 10.45L52.33 10.45L52.33 10.45Q52.19 10.42 52.07 10.38L52.07 10.38L52.07 10.38Q51.95 10.34 51.87 10.27L51.87 10.27L51.87 10.27Q51.79 10.20 51.79 10.04L51.79 10.04L51.79 10.04Q51.79 9.61 52.01 9.31L52.01 9.31L52.01 9.31Q52.23 9.00 52.66 8.81L52.66 8.81L52.66 8.81Q53.09 8.61 53.71 8.52L53.71 8.52L53.71 8.52Q54.34 8.43 55.15 8.43L55.15 8.43L55.15 8.43Q55.98 8.43 56.62 8.52L56.62 8.52L56.62 8.52Q57.26 8.61 57.70 8.81L57.70 8.81L57.70 8.81Q58.13 9.00 58.35 9.31L58.35 9.31L58.35 9.31Q58.58 9.61 58.58 10.04L58.58 10.04L58.58 10.04Q58.58 10.20 58.50 10.27L58.50 10.27L58.50 10.27Q58.41 10.34 58.29 10.38L58.29 10.38L58.29 10.38Q58.17 10.42 58.03 10.45L58.03 10.45L58.03 10.45Q57.89 10.49 57.77 10.57L57.77 10.57L57.77 10.57Q57.65 10.66 57.57 10.82L57.57 10.82L57.57 10.82Q57.48 10.99 57.48 11.29L57.48 11.29ZM64.41 13.06L64.39 16.69L64.39 16.69Q64.39 16.97 64.47 17.12L64.47 17.12L64.47 17.12Q64.54 17.28 64.66 17.36L64.66 17.36L64.66 17.36Q64.77 17.44 64.90 17.47L64.90 17.47L64.90 17.47Q65.03 17.50 65.14 17.53L65.14 17.53L65.14 17.53Q65.26 17.57 65.33 17.63L65.33 17.63L65.33 17.63Q65.41 17.70 65.41 17.85L65.41 17.85L65.41 17.85Q65.41 18.63 64.60 18.97L64.60 18.97L64.60 18.97Q63.79 19.32 62.27 19.32L62.27 19.32L62.27 19.32Q61.53 19.32 60.96 19.24L60.96 19.24L60.96 19.24Q60.40 19.15 60.01 18.97L60.01 18.97L60.01 18.97Q59.62 18.79 59.41 18.52L59.41 18.52L59.41 18.52Q59.21 18.24 59.21 17.85L59.21 17.85L59.21 17.85Q59.21 17.70 59.29 17.63L59.29 17.63L59.29 17.63Q59.36 17.57 59.47 17.53L59.47 17.53L59.47 17.53Q59.58 17.50 59.71 17.47L59.71 17.47L59.71 17.47Q59.84 17.45 59.95 17.37L59.95 17.37L59.95 17.37Q60.06 17.29 60.14 17.14L60.14 17.14L60.14 17.14Q60.21 16.99 60.21 16.71L60.21 16.71L60.21 13.06L60.21 13.06Q60.21 12.79 60.14 12.64L60.14 12.64L60.14 12.64Q60.06 12.49 59.95 12.41L59.95 12.41L59.95 12.41Q59.84 12.33 59.71 12.30L59.71 12.30L59.71 12.30Q59.58 12.28 59.47 12.24L59.47 12.24L59.47 12.24Q59.36 12.21 59.29 12.14L59.29 12.14L59.29 12.14Q59.21 12.08 59.21 11.93L59.21 11.93L59.21 11.93Q59.21 11.54 59.41 11.26L59.41 11.26L59.41 11.26Q59.62 10.99 60.01 10.80L60.01 10.80L60.01 10.80Q60.40 10.62 60.96 10.54L60.96 10.54L60.96 10.54Q61.53 10.46 62.27 10.46L62.27 10.46L62.27 10.46Q62.94 10.46 63.33 10.57L63.33 10.57L63.33 10.57Q63.73 10.68 63.95 10.82L63.95 10.82L63.95 10.82Q64.20 10.99 64.30 11.18L64.30 11.18L64.30 11.18Q64.65 10.93 65.15 10.73L65.15 10.73L65.15 10.73Q65.57 10.55 66.18 10.40L66.18 10.40L66.18 10.40Q66.79 10.26 67.61 10.26L67.61 10.26L67.61 10.26Q68.37 10.26 68.91 10.45L68.91 10.45L68.91 10.45Q69.45 10.64 69.83 10.95L69.83 10.95L69.83 10.95Q70.21 11.27 70.44 11.69L70.44 11.69L70.44 11.69Q70.68 12.11 70.80 12.57L70.80 12.57L70.80 12.57Q70.93 13.03 70.97 13.50L70.97 13.50L70.97 13.50Q71.02 13.97 71.02 14.39L71.02 14.39L71.02 16.65L71.02 16.65Q71.02 16.94 71.09 17.10L71.09 17.10L71.09 17.10Q71.17 17.26 71.29 17.35L71.29 17.35L71.29 17.35Q71.40 17.43 71.53 17.46L71.53 17.46L71.53 17.46Q71.67 17.49 71.78 17.53L71.78 17.53L71.78 17.53Q71.90 17.57 71.98 17.63L71.98 17.63L71.98 17.63Q72.05 17.70 72.05 17.85L72.05 17.85L72.05 17.85Q72.05 18.63 71.25 18.97L71.25 18.97L71.25 18.97Q70.44 19.32 68.92 19.32L68.92 19.32L68.92 19.32Q68.18 19.32 67.61 19.24L67.61 19.24L67.61 19.24Q67.05 19.15 66.66 18.97L66.66 18.97L66.66 18.97Q66.27 18.79 66.07 18.52L66.07 18.52L66.07 18.52Q65.86 18.24 65.86 17.85L65.86 17.85L65.86 17.85Q65.86 17.70 65.94 17.63L65.94 17.63L65.94 17.63Q66.01 17.57 66.13 17.53L66.13 17.53L66.13 17.53Q66.25 17.50 66.38 17.47L66.38 17.47L66.38 17.47Q66.51 17.45 66.62 17.37L66.62 17.37L66.62 17.37Q66.74 17.29 66.81 17.14L66.81 17.14L66.81 17.14Q66.89 16.99 66.89 16.71L66.89 16.71L66.89 13.79L66.89 13.79Q66.89 13.37 66.82 13.04L66.82 13.04L66.82 13.04Q66.76 12.71 66.61 12.48L66.61 12.48L66.61 12.48Q66.45 12.25 66.20 12.13L66.20 12.13L66.20 12.13Q65.95 12.01 65.57 12.01L65.57 12.01L65.57 12.01Q65.33 12.01 65.12 12.09L65.12 12.09L65.12 12.09Q64.91 12.17 64.75 12.31L64.75 12.31L64.75 12.31Q64.59 12.45 64.50 12.64L64.50 12.64L64.50 12.64Q64.41 12.84 64.41 13.06L64.41 13.06ZM82.93 8.02L82.91 16.69L82.91 16.69Q82.91 16.97 82.98 17.12L82.98 17.12L82.98 17.12Q83.06 17.28 83.17 17.36L83.17 17.36L83.17 17.36Q83.28 17.44 83.41 17.47L83.41 17.47L83.41 17.47Q83.54 17.50 83.65 17.53L83.65 17.53L83.65 17.53Q83.76 17.57 83.84 17.63L83.84 17.63L83.84 17.63Q83.91 17.70 83.91 17.85L83.91 17.85L83.91 17.85Q83.91 18.63 83.10 18.97L83.10 18.97L83.10 18.97Q82.30 19.32 80.77 19.32L80.77 19.32L80.77 19.32Q80.36 19.32 80.06 19.26L80.06 19.26L80.06 19.26Q79.75 19.20 79.53 19.08L79.53 19.08L79.53 19.08Q79.30 18.97 79.16 18.81L79.16 18.81L79.16 18.81Q79.02 18.65 78.93 18.45L78.93 18.45L78.93 18.45Q78.75 18.61 78.49 18.80L78.49 18.80L78.49 18.80Q78.24 18.98 77.87 19.14L77.87 19.14L77.87 19.14Q77.51 19.29 77.03 19.39L77.03 19.39L77.03 19.39Q76.56 19.49 75.95 19.49L75.95 19.49L75.95 19.49Q75.26 19.49 74.73 19.30L74.73 19.30L74.73 19.30Q74.20 19.11 73.81 18.77L73.81 18.77L73.81 18.77Q73.42 18.44 73.17 18.00L73.17 18.00L73.17 18.00Q72.91 17.55 72.75 17.05L72.75 17.05L72.75 17.05Q72.59 16.54 72.53 16.00L72.53 16.00L72.53 16.00Q72.46 15.46 72.46 14.94L72.46 14.94L72.46 14.94Q72.46 14.40 72.54 13.84L72.54 13.84L72.54 13.84Q72.62 13.29 72.80 12.77L72.80 12.77L72.80 12.77Q72.98 12.25 73.26 11.79L73.26 11.79L73.26 11.79Q73.55 11.33 73.95 11.00L73.95 11.00L73.95 11.00Q74.36 10.66 74.90 10.46L74.90 10.46L74.90 10.46Q75.45 10.26 76.14 10.26L76.14 10.26L76.14 10.26Q76.62 10.26 77.02 10.33L77.02 10.33L77.02 10.33Q77.42 10.40 77.73 10.52L77.73 10.52L77.73 10.52Q78.05 10.64 78.30 10.79L78.30 10.79L78.30 10.79Q78.54 10.94 78.72 11.09L78.72 11.09L78.72 9.03L78.72 9.03Q78.72 8.75 78.64 8.60L78.64 8.60L78.64 8.60Q78.57 8.46 78.46 8.38L78.46 8.38L78.46 8.38Q78.35 8.30 78.22 8.27L78.22 8.27L78.22 8.27Q78.09 8.24 77.98 8.21L77.98 8.21L77.98 8.21Q77.87 8.18 77.80 8.11L77.80 8.11L77.80 8.11Q77.72 8.05 77.72 7.90L77.72 7.90L77.72 7.90Q77.72 7.51 77.93 7.23L77.93 7.23L77.93 7.23Q78.13 6.95 78.52 6.77L78.52 6.77L78.52 6.77Q78.91 6.59 79.47 6.51L79.47 6.51L79.47 6.51Q80.04 6.43 80.77 6.43L80.77 6.43L80.77 6.43Q81.51 6.43 81.94 6.50L81.94 6.50L81.94 6.50Q82.37 6.58 82.59 6.76L82.59 6.76L82.59 6.76Q82.81 6.94 82.87 7.25L82.87 7.25L82.87 7.25Q82.93 7.55 82.93 8.02L82.93 8.02ZM77.72 17.75L77.72 17.75L77.72 17.75Q78.00 17.75 78.26 17.66L78.26 17.66L78.26 17.66Q78.53 17.56 78.73 17.45L78.73 17.45L78.73 17.45Q78.72 17.27 78.72 17.09L78.72 17.09L78.72 17.09Q78.72 16.91 78.72 16.71L78.72 16.71L78.72 12.39L78.72 12.39Q78.48 12.25 78.20 12.13L78.20 12.13L78.20 12.13Q77.92 12.01 77.63 12.01L77.63 12.01L77.63 12.01Q77.31 12.01 77.11 12.15L77.11 12.15L77.11 12.15Q76.91 12.30 76.79 12.64L76.79 12.64L76.79 12.64Q76.68 12.97 76.63 13.55L76.63 13.55L76.63 13.55Q76.59 14.12 76.59 14.96L76.59 14.96L76.59 14.96Q76.59 15.48 76.62 15.98L76.62 15.98L76.62 15.98Q76.66 16.47 76.77 16.87L76.77 16.87L76.77 16.87Q76.89 17.26 77.12 17.51L77.12 17.51L77.12 17.51Q77.34 17.75 77.72 17.75ZM85.70 8.11L85.70 8.11L85.70 8.11Q85.70 7.77 85.81 7.51L85.81 7.51L85.81 7.51Q85.93 7.25 86.12 7.06L86.12 7.06L86.12 7.06Q86.31 6.88 86.55 6.75L86.55 6.75L86.55 6.75Q86.80 6.62 87.04 6.55L87.04 6.55L87.04 6.55Q87.29 6.47 87.52 6.44L87.52 6.44L87.52 6.44Q87.75 6.41 87.92 6.41L87.92 6.41L87.92 6.41Q88.10 6.41 88.34 6.44L88.34 6.44L88.34 6.44Q88.57 6.47 88.82 6.55L88.82 6.55L88.82 6.55Q89.07 6.62 89.30 6.75L89.30 6.75L89.30 6.75Q89.54 6.88 89.73 7.06L89.73 7.06L89.73 7.06Q89.92 7.25 90.03 7.51L90.03 7.51L90.03 7.51Q90.15 7.77 90.15 8.11L90.15 8.11L90.15 8.11Q90.15 8.44 90.03 8.70L90.03 8.70L90.03 8.70Q89.92 8.96 89.73 9.15L89.73 9.15L89.73 9.15Q89.54 9.33 89.30 9.46L89.30 9.46L89.30 9.46Q89.07 9.58 88.82 9.66L88.82 9.66L88.82 9.66Q88.57 9.73 88.34 9.77L88.34 9.77L88.34 9.77Q88.10 9.80 87.92 9.80L87.92 9.80L87.92 9.80Q87.75 9.80 87.52 9.77L87.52 9.77L87.52 9.77Q87.29 9.73 87.04 9.66L87.04 9.66L87.04 9.66Q86.80 9.58 86.55 9.46L86.55 9.46L86.55 9.46Q86.31 9.33 86.12 9.15L86.12 9.15L86.12 9.15Q85.93 8.96 85.81 8.71L85.81 8.71L85.81 8.71Q85.70 8.45 85.70 8.11ZM89.93 12.05L89.93 16.71L89.93 16.71Q89.93 16.99 90.01 17.14L90.01 17.14L90.01 17.14Q90.08 17.29 90.20 17.37L90.20 17.37L90.20 17.37Q90.31 17.45 90.44 17.47L90.44 17.47L90.44 17.47Q90.57 17.50 90.68 17.53L90.68 17.53L90.68 17.53Q90.79 17.57 90.87 17.63L90.87 17.63L90.87 17.63Q90.95 17.70 90.95 17.85L90.95 17.85L90.95 17.85Q90.95 18.63 90.14 18.97L90.14 18.97L90.14 18.97Q89.33 19.32 87.81 19.32L87.81 19.32L87.81 19.32Q87.07 19.32 86.50 19.24L86.50 19.24L86.50 19.24Q85.93 19.15 85.54 18.97L85.54 18.97L85.54 18.97Q85.16 18.79 84.95 18.52L84.95 18.52L84.95 18.52Q84.75 18.24 84.75 17.85L84.75 17.85L84.75 17.85Q84.75 17.70 84.83 17.63L84.83 17.63L84.83 17.63Q84.90 17.57 85.01 17.53L85.01 17.53L85.01 17.53Q85.12 17.50 85.25 17.47L85.25 17.47L85.25 17.47Q85.38 17.45 85.49 17.37L85.49 17.37L85.49 17.37Q85.60 17.29 85.67 17.14L85.67 17.14L85.67 17.14Q85.75 16.99 85.75 16.71L85.75 16.71L85.75 13.06L85.75 13.06Q85.75 12.79 85.67 12.64L85.67 12.64L85.67 12.64Q85.60 12.49 85.49 12.41L85.49 12.41L85.49 12.41Q85.38 12.33 85.25 12.30L85.25 12.30L85.25 12.30Q85.12 12.28 85.01 12.24L85.01 12.24L85.01 12.24Q84.90 12.21 84.83 12.14L84.83 12.14L84.83 12.14Q84.75 12.08 84.75 11.93L84.75 11.93L84.75 11.93Q84.75 11.54 84.95 11.26L84.95 11.26L84.95 11.26Q85.16 10.99 85.54 10.80L85.54 10.80L85.54 10.80Q85.93 10.62 86.50 10.54L86.50 10.54L86.50 10.54Q87.07 10.46 87.81 10.46L87.81 10.46L87.81 10.46Q88.55 10.46 88.97 10.53L88.97 10.53L88.97 10.53Q89.39 10.61 89.61 10.79L89.61 10.79L89.61 10.79Q89.82 10.97 89.88 11.28L89.88 11.28L89.88 11.28Q89.93 11.59 89.93 12.05L89.93 12.05ZM96.63 12.01L96.63 12.01L96.63 12.01Q96.41 12.01 96.22 12.11L96.22 12.11L96.22 12.11Q96.03 12.21 95.89 12.41L95.89 12.41L95.89 12.41Q95.75 12.62 95.67 12.94L95.67 12.94L95.67 12.94Q95.59 13.25 95.59 13.69L95.59 13.69L97.77 13.69L97.77 13.69Q97.77 13.21 97.70 12.89L97.70 12.89L97.70 12.89Q97.62 12.56 97.48 12.37L97.48 12.37L97.48 12.37Q97.34 12.17 97.12 12.09L97.12 12.09L97.12 12.09Q96.91 12.01 96.63 12.01ZM96.13 10.26L96.13 10.26L96.13 10.26Q97.04 10.26 97.78 10.53L97.78 10.53L97.78 10.53Q98.51 10.81 99.03 11.29L99.03 11.29L99.03 11.29Q99.54 11.76 99.82 12.41L99.82 12.41L99.82 12.41Q100.10 13.06 100.10 13.80L100.10 13.80L100.10 13.80Q100.10 14.11 100.01 14.28L100.01 14.28L100.01 14.28Q99.93 14.45 99.77 14.53L99.77 14.53L99.77 14.53Q99.61 14.62 99.38 14.64L99.38 14.64L99.38 14.64Q99.15 14.66 98.85 14.66L98.85 14.66L95.57 14.66L95.57 14.66Q95.57 15.41 95.72 15.88L95.72 15.88L95.72 15.88Q95.87 16.34 96.15 16.60L96.15 16.60L96.15 16.60Q96.42 16.86 96.80 16.96L96.80 16.96L96.80 16.96Q97.19 17.05 97.65 17.05L97.65 17.05L97.65 17.05Q97.90 17.05 98.16 17.00L98.16 17.00L98.16 17.00Q98.42 16.95 98.67 16.88L98.67 16.88L98.67 16.88Q98.91 16.80 99.11 16.72L99.11 16.72L99.11 16.72Q99.32 16.64 99.46 16.56L99.46 16.56L99.46 16.56Q99.57 16.50 99.67 16.50L99.67 16.50L99.67 16.50Q99.83 16.50 99.91 16.64L99.91 16.64L99.91 16.64Q100.00 16.77 100.00 16.93L100.00 16.93L100.00 16.93Q100.00 16.99 100.00 17.04L100.00 17.04L100.00 17.04Q99.99 17.08 99.97 17.13L99.97 17.13L99.97 17.13Q99.77 17.64 99.43 18.07L99.43 18.07L99.43 18.07Q99.09 18.50 98.60 18.82L98.60 18.82L98.60 18.82Q98.11 19.13 97.47 19.31L97.47 19.31L97.47 19.31Q96.82 19.49 96.02 19.49L96.02 19.49L96.02 19.49Q95.26 19.49 94.63 19.31L94.63 19.31L94.63 19.31Q93.99 19.13 93.48 18.80L93.48 18.80L93.48 18.80Q92.98 18.48 92.59 18.04L92.59 18.04L92.59 18.04Q92.21 17.60 91.96 17.09L91.96 17.09L91.96 17.09Q91.70 16.57 91.58 16.01L91.58 16.01L91.58 16.01Q91.45 15.44 91.45 14.87L91.45 14.87L91.45 14.87Q91.45 14.29 91.58 13.72L91.58 13.72L91.58 13.72Q91.71 13.15 91.97 12.63L91.97 12.63L91.97 12.63Q92.23 12.12 92.62 11.69L92.62 11.69L92.62 11.69Q93.01 11.25 93.53 10.93L93.53 10.93L93.53 10.93Q94.05 10.62 94.70 10.44L94.70 10.44L94.70 10.44Q95.35 10.26 96.13 10.26Z"></path></g> <!----> <g data-v-5f19e91b="" id="7280f1e2-4a0b-ed52-c934-ed95d6999636" transform="matrix(0.6444459279378255,0,0,0.6444459279378255,-4.622270923193476,-1.6223601022369323)" stroke="none" fill="black"><title>30 Think of Music</title><path d="M55.8,43.132,52,35.758c0-1.144,0-4.5-.021-4.817a1,1,0,0,0-1-.941H43.535l-1.7-2.555a1.039,1.039,0,0,0-1.664,0L38.465,30H37a1,1,0,0,0-.832.445l-1.044,1.567L32.9,27.553a1.042,1.042,0,0,0-1.79,0l-2.229,4.459-1.044-1.567A1,1,0,0,0,27,30H25.535l-1.7-2.555a1,1,0,0,0-1.727.108l-2.229,4.459-1.044-1.567A1,1,0,0,0,18,30H9a1,1,0,0,0-1,1c0,10.116,3.948,14.6,7.121,18.212C17.288,51.676,19,53.623,19,56.77V59a2,2,0,0,0,2,2H38a2,2,0,0,0,2-2V57h8a3,3,0,0,0,3-3l.045-7.19,3.352-.849A2,2,0,0,0,56,44,2.029,2.029,0,0,0,55.8,43.132Zm-5.191,1.726A2,2,0,0,0,49,46.82V54a1,1,0,0,1-1,1H37a9.311,9.311,0,0,1-8.012-4.536l-1.12-1.96a1,1,0,0,0-1.736.992l1.12,1.959A11.341,11.341,0,0,0,37,57h1v2H21V56.77c0-3.9-2.126-6.32-4.378-8.878-2.991-3.4-6.366-7.24-6.608-15.892h7.451l1.7,2.555a1,1,0,0,0,1.727-.108l2.229-4.459,1.044,1.567A1,1,0,0,0,25,32h1.465l1.7,2.555a1,1,0,0,0,1.727-.108L32,30.236l2.1,4.211a1,1,0,0,0,1.727.108L37.535,32H39a1,1,0,0,0,.832-.445L41,29.8l1.168,1.752A1,1,0,0,0,43,32h6.992C50,33.067,50,34.8,50,36a1,1,0,0,0,.111.458L54,44Z"></path><path d="M22,24c2.851,0,5-1.29,5-3V11.868l12-1.715v6.426A7.519,7.519,0,0,0,36,16c-2.851,0-5,1.29-5,3s2.149,3,5,3,5-1.29,5-3V4a1,1,0,0,0-1.142-.99l-14,2A1,1,0,0,0,25,6V18.579A7.519,7.519,0,0,0,22,18c-2.851,0-5,1.29-5,3S19.149,24,22,24Zm14-4c-1.936,0-3-.751-3-1s1.064-1,3-1,3,.751,3,1S37.936,20,36,20ZM27,6.867,39,5.153v2.98L27,9.847ZM22,20c1.936,0,3,.751,3,1s-1.064,1-3,1-3-.751-3-1S20.064,20,22,20Z"></path><path d="M9,16h1v1a1,1,0,0,0,2,0V16h1a1,1,0,0,0,0-2H12V13a1,1,0,0,0-2,0v1H9a1,1,0,0,0,0,2Z"></path><path d="M47,16h1v1a1,1,0,0,0,2,0V16h1a1,1,0,0,0,0-2H50V13a1,1,0,0,0-2,0v1H47a1,1,0,0,0,0,2Z"></path></g></svg>